<svg xmlns="http://www.w3.org/2000/svg" viewBox="0 0 1200 720" fill="none">
  <rect width="1200" height="720" rx="48" fill="#eef6ff"/>
  <rect x="70" y="70" width="1060" height="580" rx="40" fill="white" opacity="0.82"/>
  <circle cx="970" cy="160" r="190" fill="#2563eb" opacity="0.10"/>
  <circle cx="235" cy="570" r="180" fill="#22d3ee" opacity="0.13"/>
  <rect x="135" y="150" width="450" height="315" rx="28" fill="#0f172a"/>
  <rect x="180" y="205" width="265" height="18" rx="9" fill="#e2e8f0" opacity=".95"/>
  <rect x="180" y="248" width="345" height="14" rx="7" fill="#94a3b8" opacity=".8"/>
  <rect x="180" y="286" width="310" height="14" rx="7" fill="#64748b" opacity=".7"/>
  <path d="M180 390C230 345 275 424 325 375C375 326 420 348 525 285" stroke="#38bdf8" stroke-width="16" stroke-linecap="round"/>
  <circle cx="525" cy="285" r="18" fill="#2563eb"/>
  <rect x="650" y="155" width="365" height="110" rx="26" fill="#2563eb" opacity=".95"/>
  <rect x="690" y="195" width="210" height="16" rx="8" fill="white" opacity=".9"/>
  <rect x="690" y="226" width="255" height="11" rx="6" fill="white" opacity=".6"/>
  <rect x="650" y="305" width="430" height="95" rx="26" fill="#e0f2fe"/>
  <rect x="690" y="340" width="280" height="14" rx="7" fill="#0f172a" opacity=".75"/>
  <rect x="690" y="368" width="210" height="10" rx="5" fill="#64748b" opacity=".55"/>
  <rect x="650" y="438" width="320" height="88" rx="24" fill="#dbeafe"/>
  <rect x="690" y="470" width="220" height="13" rx="7" fill="#0f172a" opacity=".7"/>
  <text x="135" y="560" fill="#0f172a" font-family="Arial, sans-serif" font-size="42" font-weight="800">T2M Insight</text>
</svg>