<svg xmlns="http://www.w3.org/2000/svg" width="900" height="520" viewBox="0 0 900 520" fill="none">
  <defs><radialGradient id="bg" cx="0" cy="0" r="1" gradientUnits="userSpaceOnUse" gradientTransform="translate(450 260) rotate(90) scale(360 520)"><stop stop-color="#DDFBFF"/><stop offset="0.55" stop-color="#EAF7FF"/><stop offset="1" stop-color="#1E3A8A"/></radialGradient><filter id="s" x="0" y="0" width="900" height="520" color-interpolation-filters="sRGB"><feDropShadow dx="0" dy="20" stdDeviation="22" flood-opacity="0.18" flood-color="#0F172A"/></filter></defs>
  <rect width="900" height="520" fill="url(#bg)"/>
  <circle cx="450" cy="260" r="104" fill="#38BDF8" opacity="0.25"/>
  <circle cx="450" cy="260" r="52" fill="#2563EB" opacity="0.28"/>
  <g filter="url(#s)"><ellipse cx="450" cy="320" rx="235" ry="70" fill="#60A5FA" opacity="0.18"/><path d="M450 159v112M318 206l108 66M582 206l-108 66M300 336l126-64M600 336l-126-64" stroke="#93C5FD" stroke-width="5" stroke-linecap="round" opacity="0.8"/></g>
  <g><circle cx="450" cy="260" r="50" fill="white"/><circle cx="435" cy="250" r="13" fill="#2563EB"/><circle cx="465" cy="250" r="13" fill="#06B6D4"/><path d="M412 284c8-20 68-20 76 0" stroke="#0F172A" stroke-width="10" stroke-linecap="round"/></g>
  <g filter="url(#s)">
    <rect x="190" y="120" width="188" height="62" rx="24" fill="white"/><circle cx="224" cy="151" r="17" fill="#F97316"/><rect x="254" y="139" width="90" height="10" rx="5" fill="#CBD5E1"/><rect x="254" y="157" width="58" height="8" rx="4" fill="#93C5FD"/>
    <rect x="524" y="120" width="188" height="62" rx="24" fill="white"/><circle cx="558" cy="151" r="17" fill="#22C55E"/><rect x="588" y="139" width="80" height="10" rx="5" fill="#CBD5E1"/><rect x="588" y="157" width="62" height="8" rx="4" fill="#67E8F9"/>
    <rect x="132" y="313" width="176" height="62" rx="24" fill="white"/><circle cx="166" cy="344" r="17" fill="#2563EB"/><rect x="196" y="332" width="78" height="10" rx="5" fill="#CBD5E1"/><rect x="196" y="350" width="52" height="8" rx="4" fill="#93C5FD"/>
    <rect x="592" y="313" width="176" height="62" rx="24" fill="white"/><circle cx="626" cy="344" r="17" fill="#EC4899"/><rect x="656" y="332" width="76" height="10" rx="5" fill="#CBD5E1"/><rect x="656" y="350" width="50" height="8" rx="4" fill="#67E8F9"/>
  </g>
  <g opacity="0.95"><circle cx="730" cy="228" r="33" fill="#2563EB"/><path d="M718 229l8 9 19-22" stroke="white" stroke-width="7" stroke-linecap="round" stroke-linejoin="round"/><circle cx="163" cy="226" r="30" fill="#06B6D4"/><path d="M151 226h24M163 214v24" stroke="white" stroke-width="7" stroke-linecap="round"/></g>
</svg>
