<svg xmlns="http://www.w3.org/2000/svg" width="900" height="520" viewBox="0 0 900 520" fill="none">
  <defs><linearGradient id="bg" x1="0" y1="0" x2="900" y2="520"><stop stop-color="#E0F2FE"/><stop offset="1" stop-color="#0F172A"/></linearGradient><filter id="s" x="0" y="0" width="900" height="520" color-interpolation-filters="sRGB"><feDropShadow dx="0" dy="24" stdDeviation="24" flood-opacity="0.22" flood-color="#020617"/></filter></defs>
  <rect width="900" height="520" fill="url(#bg)"/>
  <circle cx="760" cy="110" r="170" fill="#22D3EE" opacity="0.20"/><circle cx="250" cy="450" r="220" fill="#2563EB" opacity="0.20"/>
  <g filter="url(#s)">
    <rect x="134" y="88" width="620" height="260" rx="30" fill="#0F172A"/>
    <rect x="164" y="122" width="560" height="188" rx="20" fill="#F8FAFC"/>
    <rect x="190" y="150" width="120" height="54" rx="16" fill="#EFF6FF"/><rect x="335" y="150" width="120" height="54" rx="16" fill="#ECFEFF"/><rect x="480" y="150" width="120" height="54" rx="16" fill="#F0FDFA"/>
    <path d="M195 266C230 242 254 256 288 230C324 203 357 224 390 196C431 162 470 181 510 155C557 125 608 142 682 112" stroke="#2563EB" stroke-width="8" stroke-linecap="round"/>
    <path d="M195 286H690" stroke="#CBD5E1" stroke-width="4" stroke-linecap="round" stroke-dasharray="8 12"/>
    <circle cx="682" cy="112" r="12" fill="#22C55E" stroke="white" stroke-width="5"/>
  </g>
  <g filter="url(#s)">
    <rect x="236" y="310" width="430" height="118" rx="28" fill="white"/>
    <rect x="274" y="358" width="88" height="26" rx="13" fill="#DBEAFE"/><rect x="397" y="358" width="88" height="26" rx="13" fill="#CFFAFE"/><rect x="520" y="358" width="88" height="26" rx="13" fill="#CCFBF1"/>
    <path d="M361 371h36M485 371h35" stroke="#2563EB" stroke-width="4" stroke-linecap="round" stroke-dasharray="7 8"/>
    <circle cx="318" cy="371" r="8" fill="#2563EB"/><circle cx="441" cy="371" r="8" fill="#06B6D4"/><circle cx="564" cy="371" r="8" fill="#14B8A6"/>
  </g>
  <g opacity="0.95"><rect x="685" y="320" width="98" height="98" rx="28" fill="white"/><path d="M716 370l14 14 31-37" stroke="#2563EB" stroke-width="10" stroke-linecap="round" stroke-linejoin="round"/></g>
  <g opacity="0.9"><rect x="92" y="224" width="96" height="96" rx="28" fill="white"/><path d="M122 282h12v-24h-12v24Zm20 0h12v-48h-12v48Zm20 0h12v-66h-12v66Z" fill="#06B6D4"/></g>
</svg>
